<svg xmlns="http://www.w3.org/2000/svg" xmlns:xlink="http://www.w3.org/1999/xlink" width="500" zoomAndPan="magnify" viewBox="0 0 375 374.999991" height="500" preserveAspectRatio="xMidYMid meet" version="1.0"><defs><clipPath id="460a605045"><path d="M 114.832031 159.414062 L 254.761719 159.414062 L 254.761719 211.886719 L 114.832031 211.886719 Z M 114.832031 159.414062 " clip-rule="nonzero"/></clipPath><clipPath id="e8a2797516"><path d="M 132.082031 159.414062 L 237.511719 159.414062 C 247.035156 159.414062 254.761719 167.136719 254.761719 176.664062 L 254.761719 194.234375 C 254.761719 203.757812 247.035156 211.484375 237.511719 211.484375 L 132.082031 211.484375 C 122.554688 211.484375 114.832031 203.757812 114.832031 194.234375 L 114.832031 176.664062 C 114.832031 167.136719 122.554688 159.414062 132.082031 159.414062 " clip-rule="nonzero"/></clipPath><clipPath id="c30dab2133"><path d="M 181 138 L 189 138 L 189 235.8125 L 181 235.8125 Z M 181 138 " clip-rule="nonzero"/></clipPath><clipPath id="0c68fedf4a"><path d="M 91.511719 117.3125 L 278 117.3125 L 278 167 L 91.511719 167 Z M 91.511719 117.3125 " clip-rule="nonzero"/></clipPath></defs><g clip-path="url(#460a605045)"><g clip-path="url(#e8a2797516)"><path fill="#ffde59" d="M 114.832031 159.414062 L 254.761719 159.414062 L 254.761719 211.886719 L 114.832031 211.886719 Z M 114.832031 159.414062 " fill-opacity="1" fill-rule="nonzero"/></g></g><g clip-path="url(#c30dab2133)"><path fill="#000000" d="M 188.246094 232.402344 L 188.246094 142.355469 C 188.246094 140.425781 186.765625 138.949219 184.828125 138.949219 C 183.003906 138.949219 181.523438 140.425781 181.523438 142.355469 L 181.523438 232.402344 C 181.523438 234.335938 183.003906 235.8125 184.828125 235.8125 C 186.765625 235.8125 188.246094 234.335938 188.246094 232.402344 " fill-opacity="1" fill-rule="nonzero"/></g><path fill="#000000" d="M 232.144531 208.609375 L 232.144531 161.433594 C 232.144531 159.617188 230.664062 158.027344 228.726562 158.027344 C 226.902344 158.027344 225.425781 159.617188 225.425781 161.433594 L 225.425781 208.609375 C 225.425781 210.425781 226.902344 212.015625 228.726562 212.015625 C 230.664062 212.015625 232.144531 210.425781 232.144531 208.609375 " fill-opacity="1" fill-rule="nonzero"/><path fill="#000000" d="M 144.234375 208.609375 L 144.234375 161.433594 C 144.234375 159.617188 142.753906 158.027344 140.929688 158.027344 C 138.992188 158.027344 137.511719 159.617188 137.511719 161.433594 L 137.511719 208.609375 C 137.511719 210.425781 138.992188 212.015625 140.929688 212.015625 C 142.753906 212.015625 144.234375 210.425781 144.234375 208.609375 " fill-opacity="1" fill-rule="nonzero"/><g clip-path="url(#0c68fedf4a)"><path fill="#000000" d="M 275.847656 160.351562 L 186.308594 117.769531 C 185.398438 117.316406 184.371094 117.316406 183.460938 117.769531 L 93.921875 160.351562 C 92.214844 161.144531 91.53125 163.191406 92.328125 164.894531 C 93.125 166.484375 95.175781 167.277344 96.886719 166.484375 L 184.828125 124.582031 L 272.886719 166.484375 C 274.59375 167.277344 276.644531 166.484375 277.441406 164.894531 C 278.238281 163.191406 277.554688 161.144531 275.847656 160.351562 " fill-opacity="1" fill-rule="nonzero"/></g></svg>